<?xml version="1.0" standalone="no"?>
<!DOCTYPE svg PUBLIC "-//W3C//DTD SVG 20010904//EN"
 "http://www.w3.org/TR/2001/REC-SVG-20010904/DTD/svg10.dtd">
<svg version="1.0" xmlns="http://www.w3.org/2000/svg"
 width="512.000000pt" height="512.000000pt" viewBox="0 0 512.000000 512.000000"
 preserveAspectRatio="xMidYMid meet">

<g transform="translate(0.000000,512.000000) scale(0.100000,-0.100000)"
fill="#000000" stroke="none">
<path d="M2920 5113 c-40 -15 -50 -35 -50 -105 l0 -68 70 0 70 0 0 64 c0 46
-5 69 -17 84 -20 23 -50 33 -73 25z"/>
<path d="M2868 2998 l-3 -1783 -525 0 c-495 0 -527 -1 -560 -19 -19 -10 -119
-70 -223 -132 l-187 -114 -303 0 c-336 0 -364 -4 -432 -63 -39 -35 -250 -370
-235 -375 20 -7 103 40 153 87 68 65 89 65 147 5 139 -142 349 -143 493 -2 30
29 58 48 72 48 14 0 42 -19 72 -48 79 -78 129 -97 248 -97 117 0 155 15 240
96 31 30 61 49 75 49 14 0 44 -19 75 -49 85 -81 123 -96 240 -96 119 0 169 19
248 97 65 63 87 63 150 -1 70 -71 123 -94 229 -99 77 -3 93 -1 146 23 34 15
79 47 108 76 63 64 81 63 155 -5 73 -68 143 -96 239 -96 96 0 164 27 237 95
72 68 92 70 150 13 l42 -41 43 29 c66 45 229 211 290 294 30 41 84 125 121
186 l66 111 228 84 c125 46 236 92 245 101 25 25 23 70 -5 96 -13 12 -30 22
-38 22 -9 0 -137 -46 -285 -102 l-269 -102 -405 -6 -405 -5 -58 -33 -57 -32
-188 2 -187 3 -3 1783 -2 1782 -70 0 -70 0 -2 -1782z"/>
<path d="M1187 4220 c-53 -39 -99 -80 -102 -91 -16 -50 31 -107 78 -95 12 3
46 23 76 45 l53 40 80 -85 c109 -114 118 -114 225 1 l78 85 50 -39 c28 -21 60
-41 71 -45 55 -17 107 41 84 93 -16 38 -186 161 -222 161 -13 0 -50 -31 -97
-81 l-77 -82 -60 63 c-32 34 -61 65 -64 70 -8 11 -47 30 -63 30 -8 0 -58 -32
-110 -70z"/>
<path d="M1048 1987 c-70 -100 -154 -221 -188 -269 l-61 -88 323 0 323 0 117
253 c64 138 120 260 124 270 6 16 -10 17 -252 17 l-259 0 -127 -183z"/>
<path d="M3420 2153 c0 -41 72 -421 85 -451 26 -58 53 -63 333 -60 l248 3 -94
263 -95 262 -239 0 c-217 0 -238 -2 -238 -17z"/>
</g>
</svg>
