<?xml version="1.0" standalone="no"?>
<!DOCTYPE svg PUBLIC "-//W3C//DTD SVG 20010904//EN"
 "http://www.w3.org/TR/2001/REC-SVG-20010904/DTD/svg10.dtd">
<svg version="1.0" xmlns="http://www.w3.org/2000/svg"
 width="512.000000pt" height="512.000000pt" viewBox="0 0 512.000000 512.000000"
 preserveAspectRatio="xMidYMid meet">

<g transform="translate(0.000000,512.000000) scale(0.100000,-0.100000)"
fill="#000000" stroke="none">
<path d="M2522 5113 c-24 -9 -42 -62 -42 -121 0 -111 -108 -548 -236 -949 -62
-197 -65 -223 -28 -252 31 -25 61 -27 91 -6 22 15 65 134 137 375 l35 115 0
-1447 1 -1448 -832 0 -833 1 65 57 c411 360 767 844 1065 1447 108 219 252
546 262 597 12 62 -44 108 -104 83 -25 -10 -36 -28 -63 -91 -170 -413 -335
-742 -520 -1034 -258 -408 -555 -747 -853 -971 -114 -86 -119 -89 -171 -89
-70 0 -100 -22 -100 -75 0 -27 6 -43 23 -56 22 -18 62 -19 1042 -19 l1019 0 0
-25 c0 -14 -3 -25 -7 -25 -5 0 -120 -5 -256 -10 -275 -11 -299 -16 -374 -83
-48 -44 -76 -99 -104 -207 -13 -47 -23 -86 -24 -87 -1 -2 -109 -12 -241 -23
-570 -49 -619 -57 -720 -126 -67 -45 -172 -154 -218 -227 -37 -58 -76 -154
-76 -188 0 -24 -149 -58 -300 -69 -107 -7 -116 -10 -137 -34 -30 -35 -29 -71
2 -101 20 -21 33 -25 87 -25 35 0 108 7 163 15 178 27 305 70 560 187 201 93
290 119 437 125 89 4 140 1 212 -12 89 -17 97 -17 120 -1 51 33 42 106 -17
134 -15 7 -79 21 -143 29 -210 30 -392 -5 -647 -122 -77 -36 -144 -65 -149
-65 -27 0 95 149 173 211 65 51 125 65 374 88 668 61 1531 120 2575 176 250
13 504 27 564 31 l109 6 -34 -48 c-53 -75 -178 -195 -268 -256 l-81 -55 -77
20 c-60 15 -112 20 -228 21 -185 1 -245 -13 -479 -115 -421 -184 -450 -192
-686 -193 -205 -1 -300 16 -509 91 -192 69 -198 70 -228 53 -33 -19 -47 -58
-33 -94 12 -31 61 -56 238 -117 187 -64 340 -91 517 -92 237 -1 344 26 670
170 303 134 424 164 585 144 122 -16 190 -36 380 -116 308 -129 476 -176 697
-195 136 -12 165 -8 193 27 27 34 25 69 -5 98 -21 22 -33 25 -92 25 -171 0
-380 47 -606 136 -78 31 -145 59 -149 63 -5 4 14 24 41 44 125 96 247 238 313
364 45 88 49 130 13 163 l-25 23 -247 -12 c-137 -6 -446 -23 -687 -36 -242
-14 -442 -25 -446 -25 -4 0 -12 19 -19 42 -16 54 -98 134 -173 171 -69 33
-195 64 -300 73 -73 6 -78 8 -78 30 l0 24 913 0 c737 1 915 3 929 14 36 27 47
66 42 150 -27 500 -46 703 -95 1006 -124 773 -368 1377 -743 1840 -81 101
-262 281 -366 364 -171 138 -415 283 -617 369 -54 23 -63 30 -63 52 0 33 -24
81 -45 89 -19 7 -54 7 -73 -1z m526 -503 c149 -99 282 -211 406 -341 93 -98
251 -297 243 -305 -2 -3 -38 1 -78 8 -41 6 -152 12 -249 11 -151 -1 -192 -5
-295 -28 -66 -15 -131 -29 -145 -32 -25 -5 -25 -4 -44 123 -23 164 -76 426
-117 579 -17 66 -34 131 -37 144 -4 22 1 20 97 -29 56 -29 154 -87 219 -130z
m-364 -310 c139 -698 159 -1429 56 -2070 -20 -123 -88 -441 -96 -449 -2 -2 -4
605 -4 1349 0 744 2 1351 4 1349 3 -2 20 -83 40 -179z m1023 -500 l112 -22 44
-82 c78 -144 236 -521 223 -533 -2 -3 -64 6 -138 18 -176 30 -530 33 -678 6
-88 -16 -254 -57 -291 -72 -14 -5 -17 14 -23 162 -3 92 -11 237 -18 321 -9
125 -9 155 2 162 16 10 178 49 250 60 100 16 393 4 517 -20z m193 -771 c74
-11 160 -25 190 -32 l55 -13 41 -165 c36 -141 78 -350 100 -495 l6 -42 -76 18
c-130 31 -178 35 -204 13 -34 -28 -39 -74 -10 -106 19 -22 43 -31 146 -52 178
-37 168 -31 175 -112 11 -109 35 -428 42 -550 l7 -113 -842 0 c-798 0 -842 1
-835 18 35 91 126 437 167 632 l13 65 55 18 c193 63 387 95 625 103 182 7 208
13 219 59 9 35 -18 83 -50 91 -44 11 -393 -4 -494 -21 -52 -8 -146 -29 -209
-45 -63 -17 -115 -30 -115 -30 -1 0 6 60 15 133 19 154 39 399 39 484 l0 60
88 27 c270 83 538 100 852 55z m-1080 -2026 c41 -8 98 -26 126 -39 49 -23 102
-69 92 -79 -3 -3 -146 -15 -319 -26 -173 -11 -431 -28 -574 -39 -143 -10 -261
-17 -263 -15 -3 2 5 35 17 74 22 72 58 116 104 126 40 9 531 23 637 18 58 -2
139 -11 180 -20z"/>
</g>
</svg>
